# xmcd CD database file
#
# Track frame offsets:
#	150
#	13901
#	31242
#	46042
#	63877
#	76723
#	92371
#	120496
#	139650
#	155078
#	170583
#	184104
#	195267
#	221779
#	235077
#	253007
#
# Disc length: 3515 seconds
#
# Revision: 1
# Processed by: cddbd v1.5.2PL0 Copyright (c) Steve Scherf et al.
# Submitted via: CDex 1.51
#
DISCID=c70db910
DTITLE=Hot Jazz Band - Celebration with Louis Armstrong
DYEAR=2008
DGENRE=Jazz
TTITLE0=When It's Sleepy Time
TTITLE1=Cabaret
TTITLE2=C'est Si Bon
TTITLE3=Dippermouth Blues
TTITLE4=Kiss To Bild A Drean On
TTITLE5=Someday You'll Be Sorry
TTITLE6=Struttin' With Some Barbecue
TTITLE7=Rockin' Chair
TTITLE8=Mack The Knife
TTITLE9=Please Don't Talk About Me
TTITLE10=Bluberry Hill
TTITLE11=Hello Dolly
TTITLE12=Cheek To Cheek
TTITLE13=Do You Know What It Means
TTITLE14=Swing That Music
TTITLE15=Wonderful World
EXTD=YEAR: 2008
EXTT0=
EXTT1=
EXTT2=
EXTT3=
EXTT4=
EXTT5=
EXTT6=
EXTT7=
EXTT8=
EXTT9=
EXTT10=
EXTT11=
EXTT12=
EXTT13=
EXTT14=
EXTT15=
PLAYORDER=
